<svg xmlns="http://www.w3.org/2000/svg" height="41.261" viewBox="0 0 231.97812 41.260739" width="231.98"><g transform="matrix(1.25 0 0 -1.25 -149.26 70.45)"><g transform="matrix(.45 0 0 .45 116.97 22.413)"><path d="m140.51 8.4688v87.246h2.6484v-87.246h-2.6484zm-116.41 9.7188v8.0703l3.9727 6.377v2.002c-6.76 2.5738-12.765 5.6284-18.469 9.3809l-0.1099 0.373 4.0939 8.953-4.8692 15.57 0.4492 0.336c3.38-2.222 6.924-4.254 10.57-6.084v9.0039c2.6325-1.565 5.4208-2.9876 8.332-4.2676v3.7891l-3.9648 6.0703v8.3145h26.859v-24.611c0.97-0.1375 1.9479-0.26039 2.9316-0.36914l10.452 16.478 10.451-16.476c0.985 0.10625 1.9623 0.22969 2.9336 0.36719v24.611h26.859v-8.3145l-3.9648-6.0703v-3.7852c2.91 1.28 5.6976 2.6987 8.3301 4.2637v-9.0039c3.6462 1.83 7.191 3.8615 10.572 6.084l0.44726-0.33594-4.8691-15.57 4.0957-8.9531-0.10937-0.37305c-5.7025-3.7525-11.708-6.8059-18.467-9.3809v-2.002l3.9707-6.377v-8.0703h-25.17l-9.7578 15.17c-1.78-0.10875-3.5548-0.16602-5.3223-0.16602-1.7662 0-3.5423 0.05727-5.3223 0.16602l-9.75-15.17h-25.17zm140.53 7.4863v3.6387l1.8691 1.291v17.381l-1.8691 1.291v3.6055h9.3184v-3.6055l-1.873-1.291v-12.244l5.8184 10.713 5.8496-10.748v12.279l-1.8379 1.291v3.6055h9.3535v-3.5703l-1.8359-1.293v-17.414l1.8359-1.291v-3.6387h-7.957l-5.375 9.5898-5.2031-9.5898h-8.0938zm31.73 0v3.6719l1.9375 1.293v17.344l-1.9375 1.293v3.6055h9.9648v-3.6055l-1.9043-1.293v-17.377l1.9043-1.293v-3.6387h-9.9648zm19.146 0-0.4082 0.44141-3.6719 4.0469v7.3125l3.0586 3.6719h8.6387l0.10352 0.13672v5.3066l-0.81641 0.95117h-4.082l-0.78125-0.95117v-2.1094h-6.1211v3.7754l0.33789 0.37305 3.7422 4.252h9.6602l4.1816-4.625v-8.8086l-0.37305-0.4082-2.8574-3.0605h-8.4356l-0.13476-0.13672v-3.877l0.71289-0.67969h4.2188l0.74805 0.67969v1.2578h6.1211v-3.0605l-0.37305-0.4082-3.7773-4.0801h-9.6914zm23.025 0-0.4082 0.44141-3.6719 4.0469v7.3125l3.0586 3.6719h8.6387l0.10352 0.13672v5.3066l-0.81641 0.95117h-4.082l-0.78125-0.95117v-2.1094h-6.1211v3.7754l0.33789 0.37305 3.7422 4.252h9.6602l4.1816-4.625v-8.8086l-0.37305-0.4082-2.8574-3.0605h-8.4356l-0.13476-0.13672v-3.877l0.71289-0.67969h4.2188l0.74805 0.67969v1.2578h6.1211v-3.0605l-0.37305-0.4082-3.7773-4.0801h-9.6914zm18.943 0v3.6719l1.9375 1.293v17.344l-1.9375 1.293v3.6055h9.9648v-3.6055l-1.9043-1.293v-17.377l1.9043-1.293v-3.6387h-9.9648zm19.148 0-0.4082 0.44141-3.6719 4.0469v7.3125l3.0586 3.6719h8.6387l0.10351 0.13672v5.3066l-0.8164 0.95117h-4.082l-0.78125-0.95117v-2.1094h-6.1211v3.7754l0.33789 0.37305 3.7422 4.252h9.6582l4.1836-4.625v-8.8086l-0.375-0.4082-2.8555-3.0605h-8.4356l-0.13476-0.13672v-3.877l0.71289-0.67969h4.2168l0.75 0.67969v1.2578h6.1211v-3.0605l-0.375-0.4082-3.7754-4.0801h-9.6914zm23.023 0-0.4082 0.44141-3.6719 4.0469v7.3125l3.0586 3.6719h8.6387l0.10351 0.13672v5.3066l-0.8164 0.95117h-4.082l-0.78125-0.95117v-2.1094h-6.1211v3.7754l0.33789 0.37305 3.7422 4.252h9.6602l4.1816-4.625v-8.8086l-0.37305-0.4082-2.8574-3.0605h-8.4356l-0.13477-0.13672v-3.877l0.71289-0.67969h4.2188l0.74805 0.67969v1.2578h6.1211v-3.0605l-0.37305-0.4082-3.7774-4.0801h-9.6914zm18.943 0v3.6719l1.9375 1.293v17.344l-1.9375 1.293v3.6055h9.9668v-3.6055l-1.9043-1.293v-17.377l1.9043-1.293v-3.6387h-9.9668zm15.066 0v3.6719l1.9375 1.293v17.346l-1.9375 1.291v3.6055h10.068v-3.6055l-2.043-1.291v-4.457h7.3692l0.4082-0.44141 3.7871-4.0137v-8.8066l-0.375-0.41016-3.8086-4.1816h-15.406zm23.908 0v3.6719l1.9375 1.293v17.346l-1.9375 1.291v3.6055h10.068v-3.6055l-2.043-1.291v-4.457h7.3691l0.4082-0.44141 3.7871-4.0137v-8.8066l-0.375-0.41016-3.8086-4.1816h-15.406zm23.91 0v3.6719l1.9375 1.293v17.344l-1.9375 1.293v3.6055h9.9648v-3.6055l-1.9043-1.293v-17.377l1.9043-1.293v-3.6387h-9.9648zm32.576 0-0.40821 0.44141-3.6719 4.0469v7.3125l3.0586 3.6719h8.6387l0.10352 0.13672v5.3066l-0.81641 0.95117h-4.082l-0.78125-0.95117v-2.1094h-6.1211v3.7754l0.33789 0.37305 3.7422 4.252h9.6602l4.1816-4.625v-8.8086l-0.37305-0.4082-2.8574-3.0605h-8.4355l-0.13477-0.13672v-3.877l0.71289-0.67969h4.2188l0.74805 0.67969v1.2578h6.1211v-3.0605l-0.37305-0.4082-3.7773-4.0801h-9.6914zm17.752 0v8.6035h5.0352v-2.9922h2.7871v16.697l-1.9062 1.293v3.6055h9.9316v-3.6055l-1.9023-1.293v-16.697h2.8223v2.9922h5.0312v-8.6035h-21.799zm29.115 0-0.30664 0.98438-6.5644 21.256-1.7676 1.4297v3.5371h9.0449v-3.6387l-1.8711-1.1562 1.1914-3.707h6.3262l1.123 3.707-1.873 1.1562v3.6387h9.4902v-3.5703l-1.9375-1.4297-6.5644-22.207h-6.291zm13.332 0v8.6035h5.0332v-2.9922h2.7891v16.697l-1.9062 1.293v3.6055h9.9297v-3.6055l-1.9024-1.293v-16.697h2.8242v2.9922h5.0312v-8.6035h-21.799zm25.709 0v3.6719l1.9375 1.293v17.344l-1.9375 1.293v3.6055h19.826v-7.5508h-6.1211v2.0059h-5.6445v-5.7129h6.5625v-5.1348h-6.5625v-5.2031h5.6445v2.8906h6.1211v-8.502h-19.826zm-158.28 5.6113h4.7617l0.68164 0.71289v5.3047l-0.68164 0.71484h-4.7617v-6.7324zm23.908 0h4.7617l0.68164 0.71289v5.3047l-0.68164 0.71484h-4.7617v-6.7324zm98.287 2.6191 2.0312 6.793-4.1074-0.04297 2.0762-6.75zm-85.1 30.145c-1.3988 0-2.5294 0.43172-3.3906 1.293-0.8625 0.85625-1.2949 1.9755-1.2949 3.3555 0 1.22 0.36164 2.1333 1.0879 2.7383 0.435 0.3525 1.31 0.72117 2.625 1.1074 0.8375 0.2375 1.4069 0.46906 1.7031 0.69531 0.29875 0.22625 0.44727 0.52383 0.44727 0.89258 0 0.2025-0.0425 0.38648-0.125 0.55274-0.085 0.16625-0.19891 0.30758-0.34766 0.42383-0.15 0.11625-0.33117 0.20844-0.54492 0.27344-0.215 0.06625-0.44883 0.09766-0.70508 0.09766-1.0462 0-2.1002-0.46664-3.1602-1.4004l-1.5332 2.8809c1.4862 1.0362 3.0848 1.5527 4.791 1.5527 1.7012 0 3.0213-0.43242 3.9551-1.2949 0.94375-0.86125 1.418-2.0686 1.418-3.6211 0-0.98625-0.26617-1.7809-0.79492-2.3809-0.52875-0.60125-1.3916-1.0812-2.5879-1.4375-1.005-0.30375-1.6088-0.51125-1.8125-0.625-0.445-0.255-0.66797-0.56875-0.66797-0.9375 0-0.33875 0.14625-0.61789 0.4375-0.83789 0.29-0.23125 0.65766-0.34766 1.0977-0.34766 0.785 0 1.5677 0.31055 2.3477 0.93555l1.4258-2.793c-1.4212-0.75-2.8786-1.123-4.3711-1.123zm-138.82 0.33789v7.9414c0 1.1475 0.10571 2.0757 0.31446 2.7832 0.20875 0.69625 0.56054 1.2949 1.0605 1.7949 1.0775 1.07 2.591 1.6055 4.541 1.6055 1.82 0 3.2914-0.52406 4.4102-1.5703 0.625-0.58875 1.0605-1.2264 1.3105-1.9102 0.25-0.68375 0.37696-1.5844 0.37696-2.7031v-7.9414h-3.5801v7.4609c0 0.3925-0.009 0.72906-0.0274 1.0078-0.0175 0.28-0.0403 0.50398-0.0703 0.67773-0.0662 0.33875-0.19703 0.64422-0.39453 0.91797-0.45 0.6125-1.1062 0.91992-1.9688 0.91992-0.80875 0-1.4338-0.29125-1.875-0.875-0.225-0.29125-0.36844-0.59391-0.42969-0.91016-0.0288-0.16-0.0507-0.38297-0.0644-0.66797-0.015-0.28625-0.0234-0.64156-0.0234-1.0703v-7.4609h-3.5801zm65.916 0 5.7988 13.777h2.7754l5.8711-13.777h-3.8809l-3.3476 8.3789-3.3184-8.3789h-3.8984zm25.668 0v13.777h7.8438v-3.0332h-4.2656v-2.3828h4.0234v-3.0352h-4.0234v-2.291h4.2656v-3.0352h-7.8438zm19.885 0v13.777h3.5801v-5.291l3.416 5.291h4.4609l-4.3281-5.6484c0.98125-0.22625 1.7276-0.66672 2.2363-1.3242 0.5075-0.65625 0.76172-1.5041 0.76172-2.5391 0-1.0588-0.31563-1.9857-0.95313-2.7832-0.7725-0.9875-1.9739-1.4824-3.5976-1.4824h-5.5762zm59.258 0v3.0352h2.9199v10.742h3.5762v-10.742h2.9629v-3.0352h-9.459zm20.037 0 4.9805 7.1562v6.6211h3.5781v-6.6211l5.166-7.1562h-4.3457l-2.4961 3.7578-2.6074-3.7578h-4.2754zm-166.08 0.002v13.775h3.5801v-8.4316l6.5938 8.4316h3.5781v-13.775h-3.5781v8.4297l-6.5938-8.4297h-3.5801zm26.418 0v13.775h3.5801v-13.775h-3.5801zm104.68 0v13.775h3.5801v-13.775h-3.5801zm-40.734 2.7559h0.67578c0.70125 0 1.245 0.14781 1.625 0.44531 0.38125 0.2975 0.57032 0.71656 0.57032 1.2578 0 0.54125-0.18907 0.96227-0.57032 1.2598-0.38 0.2975-0.92375 0.44531-1.625 0.44531h-0.67578v-3.4082zm91.258 6.8027v0.74023h1.4297v3.7305h0.88867v-3.7305h1.4297v-0.74023h-3.748zm4.3398 0-0.33008 4.4707h0.85547l0.16406-2.6289c0.0163-0.41125 0.0312-0.83875 0.0312-1.25h0.0508c0.0987 0.39375 0.2293 0.91867 0.31055 1.2637l0.80664 2.5488h0.91992l0.80469-2.4824c0.13125-0.41125 0.26391-0.93633 0.37891-1.3301h0.0488c0.015 0.47625 0.015 0.90375 0.0312 1.25l0.16602 2.6289h0.88672l-0.34375-4.4707h-1.2812l-0.77539 2.2031c-0.0975 0.32875-0.19555 0.70523-0.31055 1.1152h-0.0156c-0.115-0.46-0.19743-0.78781-0.29493-1.1328l-0.77539-2.1855h-1.3281z" transform="matrix(.8 0 0 -.8 0 80.729)" fill="#5D1725"/><path d="m51.478 34.699c11.311 0 23.062-2.817 33.302-7.949v16.825c-10.167 5.297-21.963 8.215-33.302 8.215-11.337 0-23.135-2.918-33.3-8.215v-16.825c10.238 5.132 21.99 7.949 33.3 7.949m-41.239 9.9013 2.928-6.401-2.621-8.376c1.713 0.982 3.465 1.904 5.244 2.77v12.283l0.127 0.211 0.569 0.303c1.934 1.03 3.931 1.971 5.971 2.827v2.502c-4.415-1.734-8.416-3.738-12.218-6.119m82.479 0c-3.801 2.38-7.803 4.385-12.216 6.117v-2.5c2.039-0.856 4.035-1.797 5.968-2.827l0.569-0.303 0.127-0.211v-12.283c1.778-0.866 3.532-1.788 5.245-2.77l-2.621 8.376 2.928 6.401z" fill="#fff"/><path d="m65.053 39c-1.2275-0.01375-2.456-0.0037-3.666 0.03125l-4.5723 12.877s-0.07367 0.19992-0.07617 0.20117l-0.21289 0.01758-1.0352 0.09766v2.6465c1.7875-0.17 3.5976-0.28836 5.3926-0.34961v-2.6504l-0.77148 0.02539-0.50195 0.01953 0.88477-2.4238 0.22461-0.0078c1.5288-0.0575 3.0852-0.07203 4.6289-0.05078l0.23242 0.0039s0.84555 2.4043 0.8418 2.4043l-0.48242-0.0059-0.77148-0.01367v2.6484c1.8912 0.025 3.8012 0.11281 5.6875 0.25781v-2.6504c-0.405-0.03125-0.78406-0.05703-1.1328-0.08203l-0.223-0.014-0.076-0.212-4.371-12.77zm4.9609 0.20117v4.4512c0.86875 0.055 1.7417 0.12914 2.6055 0.21289v-1.7891l0.375 0.03711c0.7325 0.075 1.4492 0.15664 2.1367 0.24414l0.29492 0.03711v9.7773s-0.000156 0.3775-0.0039 0.375l-0.375-0.04102-0.9375-0.11328v2.6445c1.9888 0.22875 3.9876 0.52742 5.9551 0.88867v-2.6426l-1.0293-0.18359s-0.27609-0.05148-0.27734-0.05273v-10.16l0.39063 0.06836c0.7575 0.13 1.4655 0.26094 2.1543 0.39844l0.27148 0.05078v1.7891c0.855 0.175 1.7118 0.36109 2.5605 0.55859v-4.4414c-4.6375-1.0812-9.3823-1.7881-14.121-2.1094zm-13.59 0.11914c-4.7325 0.40625-9.47 1.2002-14.094 2.3652v4.4355c0.84875-0.2125 1.7008-0.41586 2.5508-0.59961v-1.7891l0.26758-0.05859c0.67875-0.1475 1.3729-0.28648 2.1191-0.42773l0.40039-0.07617v9.8848s-0.000157 0.27734-0.0039 0.27734l-0.27148 0.05273-1.0312 0.20312v2.6387c1.9638-0.395 3.9577-0.72773 5.9414-0.99023v-2.6445l-0.92969 0.125s-0.38031 0.05273-0.38281 0.05273v-10.156l0.28516-0.04102c0.74625-0.1075 1.478-0.20391 2.168-0.28516l0.375-0.04492v1.791c0.8625-0.1 1.7355-0.18742 2.6055-0.26367v-4.4492zm30.057 2.5742v2.6426l1.0684 0.28516s0.25055 0.06445 0.24805 0.06445v9.7363s0.000547 0.4375-0.002 0.4375l-0.422-0.109-0.89258-0.23633v2.625c4.1838 1.09 8.333 2.4954 12.342 4.1816v-3.7734c-1.0412-0.4425-2.0986-0.86633-3.1523-1.2676v0.68945 0.48438l-0.45508-0.17188c-1.2938-0.485-2.6221-0.94555-3.9434-1.373l-0.23242-0.07617v-4.0488l0.43945 0.14258c1.3112 0.4225 2.6241 0.88789 3.9141 1.3691v-2.3691c-1.3612-0.5125-2.7473-0.99961-4.1211-1.4434l-0.23242-0.07422v-3.7617l0.43945 0.14453c1.315 0.4225 2.6507 0.88656 3.9707 1.3828 0 0 0.2207 0.08258 0.2207 0.08008v0.94727c1.0538 0.3975 2.1086 0.82172 3.1523 1.2617v-3.5586c-4.0038-1.7-8.153-3.1147-12.342-4.2109zm-23.381 0.36133 0.31055 0.90039 1.1953 3.4629 0.15625 0.44726h-0.47656c-0.8025-0.0038-1.625 0.0054-2.4375 0.02539l-0.49023 0.01172 0.16406-0.45898 1.2559-3.4902s0.32476-0.89969 0.32226-0.89844zm-25.346 0.71094c-2.035 0.63125-4.0616 1.3378-6.0254 2.1016l-2.5449 3.5508v4.1113l1.6973 1.1406c1.79-0.71 3.6933-1.3938 5.6758-2.0312l0.4375-0.14258v4.4746l-0.23242 0.07813c-1.3462 0.43125-2.6812 0.89711-3.9688 1.3809l-0.45703 0.16992v-1.8203c-1.0588 0.4025-2.1148 0.82562-3.1523 1.2656v1.8652c0.7775 0.46875 1.5688 0.95688 2.3613 1.4531 1.98-0.77125 4.0089-1.4773 6.0352-2.1035l2.6562-3.3574v-4.9922l-1.875-1.2227c-1.7312 0.52375-3.5521 1.1434-5.5684 1.8984l-0.45703 0.16992v-3.4785l0.21875-0.08398c1.3462-0.50375 2.692-0.97258 4.002-1.3926l0.4375-0.14258v1.1406c1.07-0.33875 2.1547-0.66023 3.2422-0.95898v-1.4336c-0.8325-0.56-1.6649-1.1131-2.4824-1.6406z" transform="matrix(.8 0 0 -.8 0 80.729)" fill="#5D1725"/></g></g></svg>
